# xmcd CD database file
#
# Track frame offsets:
#	183
#	10545
#	23365
#	33943
#	46355
#	57013
#	67835
#	80875
#	91285
#	103825
#	117685
#	128135
#	140983
#	151765
#	166843
#	177700
#	190003
#	204453
#
# Disc length: 2868 seconds
#
# Revision: 1
# Processed by: cddbd v1.5.2PL0 Copyright (c) Steve Scherf et al.
# Submitted via: CDex 1.51
#
DISCID=ec0b3212
DTITLE=Connie Francis - The Country Hits
DYEAR=1991
DGENRE=Country
TTITLE0=I Walk The Line
TTITLE1=I Can't Stop Loving You
TTITLE2=Oh Lonesome Me
TTITLE3=Heartache By The Number
TTITLE4=Your Cheatin' Heart
TTITLE5=Bye Bye Love
TTITLE6=Tennessee Waltz
TTITLE7=Singing The Blues
TTITLE8=Cold Cold Heart
TTITLE9=She'll Have To Go
TTITLE10=Ivory Tower
TTITLE11=I'd Be A Legend In My Time
TTITLE12=How's The World Treating You
TTITLE13=He Thinks I Still Care
TTITLE14=If You Ever Change Your Mind
TTITLE15=If You Ever Get Lonley
TTITLE16=I Don't Wanna Play House
TTITLE17=Room Full Of Roses
EXTD=Polydor 847 751-2 YEAR: 1991
EXTT0=
EXTT1=
EXTT2=
EXTT3=
EXTT4=
EXTT5=
EXTT6=
EXTT7=
EXTT8=
EXTT9=
EXTT10=
EXTT11=
EXTT12=
EXTT13=
EXTT14=
EXTT15=
EXTT16=
EXTT17=
PLAYORDER=
